<svg width="100px" height="100px" viewBox="-2.4 -2.4 28.80 28.80" fill="none" xmlns="http://www.w3.org/2000/svg" stroke="#00ff33" transform="matrix(1, 0, 0, 1, 0, 0)rotate(0)"><g id="SVGRepo_bgCarrier" stroke-width="0" transform="translate(0,0), scale(1)"><path transform="translate(-2.4, -2.4), scale(0.8999999999999999)" d="M16,30.96634405212743C18.35046502252001,31.067783285206602,20.234950865177307,29.075905282512238,22.133644371064094,27.68668294220777C23.834852104509846,26.441955564421875,25.146574244301192,24.85961171441837,26.525425602467408,23.26517672689816C28.049335876616627,21.503002838788518,30.25934804325851,20.07277915130103,30.696926755357588,17.784529993907825C31.135863397928652,15.48917975236129,29.632533837905793,13.328751090327515,28.84640051251921,11.128002921573096C28.046379361810537,8.888376352477938,27.704527088904165,6.3686068582662285,26.019514716432464,4.69030583783054C24.311071973248563,2.988667769122739,21.88717507150085,2.1279719398512635,19.496262344649402,1.8151060641263346C17.213135658823308,1.516344665632044,14.90834464688025,2.0665016897761035,12.785574231132104,2.9585620009580023C10.833213339330268,3.7790104355883196,9.152664570939857,5.112024404315415,7.791065099161301,6.734027969100943C6.534699515964165,8.230671803691843,6.174848830339794,10.20050184299508,5.2577950048111575,11.926019019769779C4.201658120721951,13.913233165537854,2.214038715730938,15.468593642375826,1.9605246982953872,17.70470093453291C1.695856532136271,20.039192819190514,2.308636316853373,22.61244259305211,3.8446941826428933,24.390201809216208C5.36607022438592,26.150968991037033,8.091395745133166,26.061721242224614,10.138062617695322,27.168988527808168C12.215931829412586,28.293136591520934,13.639730230204218,30.86448167467697,16,30.96634405212743" fill="#c3ebf9" strokewidth="0"></path></g><g id="SVGRepo_tracerCarrier" stroke-linecap="round" stroke-linejoin="round" stroke="#a68c8c" stroke-width="4.8"> <path d="M4 21C4 17.4735 6.60771 14.5561 10 14.0709M19.8726 15.2038C19.8044 15.2079 19.7357 15.21 19.6667 15.21C18.6422 15.21 17.7077 14.7524 17 14C16.2923 14.7524 15.3578 15.2099 14.3333 15.2099C14.2643 15.2099 14.1956 15.2078 14.1274 15.2037C14.0442 15.5853 14 15.9855 14 16.3979C14 18.6121 15.2748 20.4725 17 21C18.7252 20.4725 20 18.6121 20 16.3979C20 15.9855 19.9558 15.5853 19.8726 15.2038ZM15 7C15 9.20914 13.2091 11 11 11C8.79086 11 7 9.20914 7 7C7 4.79086 8.79086 3 11 3C13.2091 3 15 4.79086 15 7Z" stroke="#000000" stroke-width="1.8240000000000003" stroke-linecap="round" stroke-linejoin="round"></path> </g><g id="SVGRepo_iconCarrier"> <path d="M4 21C4 17.4735 6.60771 14.5561 10 14.0709M19.8726 15.2038C19.8044 15.2079 19.7357 15.21 19.6667 15.21C18.6422 15.21 17.7077 14.7524 17 14C16.2923 14.7524 15.3578 15.2099 14.3333 15.2099C14.2643 15.2099 14.1956 15.2078 14.1274 15.2037C14.0442 15.5853 14 15.9855 14 16.3979C14 18.6121 15.2748 20.4725 17 21C18.7252 20.4725 20 18.6121 20 16.3979C20 15.9855 19.9558 15.5853 19.8726 15.2038ZM15 7C15 9.20914 13.2091 11 11 11C8.79086 11 7 9.20914 7 7C7 4.79086 8.79086 3 11 3C13.2091 3 15 4.79086 15 7Z" stroke="#000000" stroke-width="1.8240000000000003" stroke-linecap="round" stroke-linejoin="round"></path> </g></svg>